<svg width="536" height="290" viewBox="0 0 536 290" fill="none" xmlns="http://www.w3.org/2000/svg">
<path fill-rule="evenodd" clip-rule="evenodd" d="M229.121 284.402C229.121 284.402 239.261 262.449 227.242 247.432C215.227 232.409 208.459 240.909 208.459 240.909C188.016 196.734 138.302 219.999 144.841 250.006C144.841 250.006 137.544 247.432 133.25 253.011C128.957 258.589 133.25 264.598 133.25 264.598C133.25 264.598 103.638 266.861 103.638 284.402H229.121Z" fill="#52B47A"/>
<path fill-rule="evenodd" clip-rule="evenodd" d="M441.655 284.207C441.655 284.207 429.875 278.847 431.624 270.548C433.37 262.25 442.947 263.124 441.655 256.572C440.36 250.019 434.069 239.816 440.185 232.392C446.3 224.968 456.47 229.417 457.745 217.902C458.776 208.623 463.062 202.051 471.371 203.979C479.059 205.764 484.794 211.717 484.936 225.879C485.092 240.956 495.709 236.722 495.842 247.829C495.974 259.017 487.063 259.017 483.581 266.523C481.938 270.068 486.225 282.527 473.554 284.207H441.655Z" fill="#039B4D"/>
<path fill-rule="evenodd" clip-rule="evenodd" d="M470.082 210.011C470.082 210.015 470.112 210.266 470.155 210.76C470.291 212.244 470.559 215.862 470.559 220.904C470.562 235.649 468.237 262.588 453.555 284.091C453.356 284.385 453.429 284.786 453.727 284.985C454.019 285.187 454.419 285.111 454.618 284.819C469.535 262.939 471.841 235.781 471.844 220.904C471.844 214.119 471.361 209.885 471.361 209.866C471.318 209.514 471 209.259 470.649 209.299C470.294 209.339 470.042 209.66 470.082 210.011Z" fill="#455493"/>
<path fill-rule="evenodd" clip-rule="evenodd" d="M455.811 284.207C455.811 284.207 453.956 273.964 460.906 269.796C467.856 265.625 474.955 262.382 474.186 255.664C473.415 248.946 475.309 241.015 486.447 240.866C493.331 240.777 490.747 233.518 497.74 232.071C501.993 231.19 504.796 235.629 505.339 239.988C505.959 244.951 503.15 249.83 506.373 253.872C510.554 259.109 512.253 268.879 503.266 271.658C491.333 275.348 506.953 285.101 472.865 287.463L455.811 284.207Z" fill="#52B47A"/>
<path fill-rule="evenodd" clip-rule="evenodd" d="M497.277 236.937C497.042 243.46 494.147 252.746 489.198 261.604C484.248 270.472 477.249 278.923 468.887 283.902C468.583 284.081 468.483 284.478 468.665 284.783C468.848 285.088 469.239 285.187 469.547 285.005C478.183 279.857 485.289 271.241 490.321 262.233C495.346 253.216 498.304 243.821 498.563 236.984C498.573 236.629 498.298 236.331 497.94 236.318C497.589 236.304 497.287 236.583 497.277 236.937Z" fill="#455493"/>
<path fill-rule="evenodd" clip-rule="evenodd" d="M29.1664 90.9193H134.036C140.532 90.9193 145.849 96.2339 145.849 102.73V157.141C145.849 163.637 140.532 168.951 134.036 168.951H29.1664C22.6701 168.951 17.3555 163.637 17.3555 157.141V102.73C17.3555 96.2339 22.6701 90.9193 29.1664 90.9193Z" fill="#F2B432"/>
<path fill-rule="evenodd" clip-rule="evenodd" d="M17.3555 127.217H146.492V124.456H17.3555V127.217Z" fill="#FFFFFE"/>
<path fill-rule="evenodd" clip-rule="evenodd" d="M17.3555 141.187H145.849V130.958H17.3555V141.187Z" fill="#FFFFFE"/>
<path fill-rule="evenodd" clip-rule="evenodd" d="M35.0586 161.91H57.2794V156.617H35.0586V161.91Z" fill="#FFFFFE"/>
<path fill-rule="evenodd" clip-rule="evenodd" d="M66.5322 161.91H75.7482V156.617H66.5322V161.91Z" fill="#FFFFFE"/>
<path fill-rule="evenodd" clip-rule="evenodd" d="M25.8057 109.884H49.4192C50.5955 109.884 51.5575 110.847 51.5575 112.023V117.763C51.5575 118.94 50.5955 119.902 49.4192 119.902H25.8057C24.6293 119.902 23.667 118.94 23.667 117.763V112.023C23.667 110.847 24.6293 109.884 25.8057 109.884Z" fill="#FFFFFE"/>
<path fill-rule="evenodd" clip-rule="evenodd" d="M63.7988 109.884H87.4153C88.5913 109.884 89.552 110.847 89.552 112.023V117.763C89.552 118.94 88.5913 119.902 87.4153 119.902H63.7988C62.6228 119.902 61.6621 118.94 61.6621 117.763V112.023C61.6621 110.847 62.6228 109.884 63.7988 109.884Z" fill="#FFFFFE"/>
<path fill-rule="evenodd" clip-rule="evenodd" d="M201.877 268.965H336.424V15.3177H201.877V268.965Z" fill="#A8A7A7"/>
<path fill-rule="evenodd" clip-rule="evenodd" d="M335.015 257.784C335.015 261.027 332.385 263.654 329.145 263.654H209.983C206.74 263.654 204.113 261.027 204.113 257.784V26.5088C204.113 23.2666 206.74 20.639 209.983 20.639H329.145C332.385 20.639 335.015 23.2666 335.015 26.5088V257.784ZM331.822 0H207.303C201.048 0 195.977 5.07014 195.977 11.3266V272.97C195.977 279.224 201.048 284.296 207.303 284.296H331.822C338.076 284.296 343.148 279.224 343.148 272.97V11.3266C343.148 5.07014 338.076 0 331.822 0Z" fill="#353535"/>
<path fill-rule="evenodd" clip-rule="evenodd" d="M331.822 284.296H207.303C201.048 284.296 195.977 279.224 195.977 272.97V11.3266C195.977 8.58527 196.951 6.07091 198.574 4.1111L207.379 21.2558C205.444 22.2152 204.109 24.2048 204.109 26.5088V257.784C204.109 261.027 206.74 263.654 209.979 263.654H329.142C330.016 263.654 330.841 263.459 331.587 263.118L340.425 280.327C338.345 282.749 335.267 284.296 331.822 284.296Z" fill="#353535"/>
<path fill-rule="evenodd" clip-rule="evenodd" d="M260.005 12.6699C258.71 12.6699 257.656 11.6171 257.656 10.3205C257.656 9.02288 258.71 7.97043 260.005 7.97043C261.304 7.97043 262.357 9.02288 262.357 10.3205C262.357 11.6171 261.304 12.6699 260.005 12.6699Z" fill="#FFFFFE"/>
<path fill-rule="evenodd" clip-rule="evenodd" d="M289.651 10.3212C289.651 9.05304 288.376 8.02377 286.802 8.02377H268.068C266.492 8.02377 265.213 9.05304 265.213 10.3212C265.213 11.5879 266.492 12.6152 268.068 12.6152H286.802C288.376 12.6152 289.651 11.5879 289.651 10.3212Z" fill="#FFFFFE"/>
<path fill-rule="evenodd" clip-rule="evenodd" d="M2.50078 283.998H511.909C513.284 283.998 514.41 285.124 514.41 286.499C514.41 287.877 513.284 289 511.909 289H2.50078C1.12534 289 0 287.877 0 286.499C0 285.124 1.12534 283.998 2.50078 283.998Z" fill="#353535"/>
<path fill-rule="evenodd" clip-rule="evenodd" d="M225.176 76.4343H252.632C259.407 76.4343 264.945 81.9759 264.945 88.7494V116.205C264.945 122.979 259.407 128.52 252.632 128.52H225.176C218.402 128.52 212.859 122.979 212.859 116.205V88.7494C212.859 81.9759 218.402 76.4343 225.176 76.4343Z" fill="#FFFFFE"/>
<path fill-rule="evenodd" clip-rule="evenodd" d="M225.176 138.42H252.632C259.407 138.42 264.945 143.962 264.945 150.736V178.192C264.945 184.964 259.407 190.506 252.632 190.506H225.176C218.402 190.506 212.859 184.964 212.859 178.192V150.736C212.859 143.962 218.402 138.42 225.176 138.42Z" fill="#FFFFFE"/>
<path fill-rule="evenodd" clip-rule="evenodd" d="M238.903 118.011H226.92L227.851 98.4206L223.757 103.322L218.344 97.4924C218.344 97.4924 225.416 88.7988 226.689 88.1028C227.964 87.4084 233.735 86.9446 233.735 86.9446C233.851 88.7988 235.268 91.8127 238.903 91.8127C242.537 91.8127 243.951 88.7988 244.067 86.9446C244.067 86.9446 249.838 87.4084 251.113 88.1028C252.389 88.7988 259.458 97.4924 259.458 97.4924L254.045 103.322L249.954 98.4206L250.881 118.011H238.903Z" fill="#E1842D"/>
<path fill-rule="evenodd" clip-rule="evenodd" d="M226.22 148.692C222.132 152.64 222.781 157.051 224.252 162.194C225.723 167.338 226.352 177.208 226.352 177.208H229.927C229.927 177.208 229.506 166.287 232.027 165.446C234.551 164.606 239.212 174.063 240.14 175.535C241.064 177.006 243.035 177.208 245.202 177.208C247.371 177.208 257.909 177.208 257.909 177.208C257.909 177.208 261.636 174.314 254.855 171.039C250.489 168.93 249.697 168.376 249.697 168.376C249.697 168.376 243.959 168.155 237.927 162.194C235.572 159.868 232.709 153.509 230.589 151.219C228.25 148.692 226.22 148.692 226.22 148.692Z" fill="#2A88BC"/>
<path fill-rule="evenodd" clip-rule="evenodd" d="M278.815 145.04H322.371C326.028 145.04 329.016 148.03 329.016 151.685C329.016 155.34 326.028 158.33 322.371 158.33H278.815C275.158 158.33 272.17 155.34 272.17 151.685C272.17 148.03 275.158 145.04 278.815 145.04Z" fill="#E05769"/>
<path fill-rule="evenodd" clip-rule="evenodd" d="M281.657 151.606C281.733 151.649 281.809 151.702 281.889 151.765C281.965 151.827 282.034 151.904 282.101 151.996C282.167 152.088 282.22 152.194 282.26 152.315C282.299 152.436 282.323 152.573 282.323 152.727C282.323 153.041 282.273 153.3 282.174 153.505C282.074 153.71 281.942 153.873 281.773 153.997C281.604 154.12 281.408 154.207 281.19 154.257C280.971 154.308 280.739 154.333 280.497 154.333H278.205C278.155 154.333 278.115 154.316 278.082 154.283C278.049 154.249 278.029 154.208 278.029 154.16V149.211C278.029 149.163 278.049 149.122 278.082 149.087C278.115 149.054 278.155 149.037 278.205 149.037H280.388C280.623 149.037 280.842 149.063 281.057 149.113C281.269 149.164 281.455 149.247 281.617 149.362C281.779 149.479 281.909 149.629 282.008 149.815C282.104 150.001 282.157 150.228 282.157 150.499C282.157 150.716 282.101 150.904 281.991 151.063C281.882 151.222 281.766 151.347 281.64 151.44C281.554 151.502 281.561 151.557 281.657 151.606ZM279.636 151.049H280.308C280.408 151.049 280.484 151.012 280.54 150.937C280.6 150.861 280.63 150.778 280.63 150.687C280.63 150.6 280.593 150.525 280.524 150.463C280.454 150.4 280.388 150.368 280.325 150.368H279.636C279.59 150.368 279.547 150.386 279.513 150.42C279.48 150.453 279.464 150.494 279.464 150.542V150.875C279.464 150.923 279.48 150.964 279.513 150.998C279.547 151.032 279.59 151.049 279.636 151.049ZM280.398 152.242H279.636C279.59 152.242 279.547 152.259 279.513 152.293C279.48 152.326 279.464 152.367 279.464 152.416V152.828C279.464 152.877 279.48 152.918 279.513 152.951C279.547 152.986 279.59 153.002 279.636 153.002H280.448C280.534 153.002 280.617 152.966 280.693 152.894C280.772 152.822 280.809 152.737 280.809 152.64C280.809 152.554 280.772 152.466 280.696 152.377C280.623 152.287 280.52 152.242 280.398 152.242ZM282.863 149.218C282.863 149.17 282.879 149.129 282.912 149.095C282.949 149.061 282.988 149.044 283.035 149.044H284.121C284.171 149.044 284.211 149.061 284.244 149.095C284.277 149.129 284.297 149.17 284.297 149.218V152.148C284.297 152.337 284.327 152.491 284.386 152.615C284.446 152.738 284.522 152.834 284.612 152.905C284.701 152.974 284.797 153.024 284.9 153.053C284.999 153.082 285.092 153.096 285.175 153.096C285.258 153.096 285.35 153.082 285.45 153.053C285.553 153.024 285.649 152.974 285.735 152.905C285.821 152.834 285.894 152.738 285.957 152.615C286.016 152.491 286.046 152.337 286.046 152.148V149.218C286.046 149.17 286.063 149.129 286.096 149.095C286.132 149.061 286.172 149.044 286.218 149.044H287.305C287.355 149.044 287.394 149.061 287.428 149.095C287.461 149.129 287.481 149.17 287.481 149.218V152.148C287.481 152.491 287.424 152.802 287.315 153.082C287.209 153.362 287.053 153.6 286.851 153.798C286.649 153.996 286.404 154.149 286.122 154.257C285.837 154.366 285.523 154.421 285.175 154.421C284.827 154.421 284.512 154.366 284.227 154.257C283.946 154.149 283.701 153.996 283.499 153.798C283.297 153.6 283.141 153.362 283.028 153.082C282.919 152.802 282.863 152.491 282.863 152.148V149.218ZM292.804 149.247L290.995 152.177C290.972 152.221 290.949 152.273 290.929 152.337C290.909 152.399 290.899 152.455 290.899 152.503V154.16C290.899 154.208 290.883 154.249 290.85 154.283C290.816 154.316 290.777 154.333 290.727 154.333H289.64C289.591 154.333 289.551 154.316 289.518 154.283C289.485 154.249 289.468 154.208 289.468 154.16V152.51C289.468 152.462 289.458 152.406 289.442 152.34C289.425 152.275 289.405 152.223 289.382 152.185C289.091 151.688 288.796 151.2 288.494 150.723C288.193 150.245 287.891 149.753 287.593 149.247C287.57 149.203 287.567 149.159 287.58 149.113C287.593 149.067 287.626 149.044 287.673 149.044H288.961C289.011 149.044 289.057 149.059 289.11 149.087C289.16 149.117 289.197 149.153 289.223 149.196L290.108 150.745C290.131 150.783 290.161 150.803 290.194 150.803C290.23 150.803 290.257 150.783 290.283 150.745L291.161 149.196C291.184 149.153 291.224 149.117 291.274 149.087C291.323 149.059 291.373 149.044 291.423 149.044H292.725C292.771 149.044 292.807 149.061 292.827 149.095C292.85 149.129 292.841 149.179 292.804 149.247ZM300.596 149.211V154.16C300.596 154.208 300.579 154.249 300.543 154.283C300.509 154.316 300.47 154.333 300.42 154.333H299.353C299.304 154.333 299.254 154.319 299.201 154.29C299.148 154.261 299.108 154.227 299.078 154.189L297.193 151.534C297.164 151.495 297.134 151.479 297.104 151.486C297.071 151.494 297.058 151.521 297.058 151.569V154.16C297.058 154.208 297.041 154.249 297.005 154.283C296.971 154.316 296.928 154.333 296.882 154.333H295.799C295.752 154.333 295.709 154.316 295.673 154.283C295.64 154.249 295.623 154.208 295.623 154.16V149.211C295.623 149.163 295.64 149.122 295.673 149.087C295.709 149.054 295.749 149.037 295.799 149.037H296.882C296.932 149.037 296.981 149.05 297.034 149.077C297.087 149.103 297.127 149.136 297.157 149.175L299.039 151.829C299.068 151.868 299.098 151.885 299.128 151.881C299.161 151.876 299.178 151.849 299.178 151.801V149.211C299.178 149.163 299.194 149.122 299.227 149.087C299.261 149.054 299.304 149.037 299.35 149.037H300.42C300.47 149.037 300.509 149.054 300.543 149.087C300.579 149.122 300.596 149.163 300.596 149.211ZM301.159 151.685C301.159 151.309 301.232 150.955 301.374 150.622C301.52 150.289 301.715 149.998 301.96 149.75C302.206 149.502 302.497 149.304 302.828 149.16C303.163 149.015 303.517 148.943 303.892 148.943C304.269 148.943 304.624 149.015 304.955 149.16C305.29 149.304 305.581 149.502 305.83 149.75C306.078 149.998 306.274 150.289 306.419 150.622C306.562 150.955 306.635 151.309 306.635 151.685C306.635 152.062 306.562 152.416 306.419 152.749C306.274 153.082 306.078 153.373 305.83 153.621C305.581 153.869 305.29 154.066 304.955 154.21C304.624 154.354 304.269 154.428 303.892 154.428C303.517 154.428 303.163 154.354 302.828 154.21C302.497 154.066 302.206 153.869 301.96 153.621C301.715 153.373 301.52 153.082 301.374 152.749C301.232 152.416 301.159 152.062 301.159 151.685ZM302.59 151.685C302.59 151.868 302.623 152.042 302.693 152.206C302.759 152.37 302.852 152.515 302.971 152.64C303.087 152.766 303.226 152.866 303.385 152.941C303.544 153.015 303.716 153.053 303.892 153.053C304.071 153.053 304.24 153.015 304.399 152.941C304.558 152.866 304.697 152.766 304.819 152.64C304.939 152.515 305.035 152.37 305.101 152.206C305.167 152.042 305.204 151.868 305.204 151.685C305.204 151.507 305.167 151.334 305.101 151.168C305.035 151.002 304.939 150.857 304.819 150.734C304.697 150.611 304.558 150.512 304.399 150.437C304.24 150.362 304.071 150.325 303.892 150.325C303.716 150.325 303.544 150.362 303.385 150.437C303.226 150.512 303.087 150.611 302.971 150.734C302.852 150.857 302.759 151.002 302.693 151.168C302.623 151.334 302.59 151.507 302.59 151.685ZM306.641 149.247C306.615 149.189 306.615 149.14 306.638 149.098C306.658 149.058 306.698 149.037 306.751 149.037H307.93C307.976 149.037 308.023 149.053 308.066 149.084C308.109 149.116 308.139 149.153 308.152 149.196L308.977 151.606C308.993 151.654 309.017 151.678 309.053 151.678C309.089 151.678 309.116 151.654 309.129 151.606L309.924 149.203C309.941 149.155 309.971 149.116 310.014 149.084C310.057 149.053 310.103 149.037 310.156 149.037H311.12C311.173 149.037 311.22 149.053 311.266 149.084C311.309 149.116 311.336 149.155 311.352 149.203L312.147 151.62C312.16 151.668 312.187 151.692 312.223 151.692C312.26 151.692 312.286 151.668 312.306 151.62L313.138 149.196C313.158 149.153 313.191 149.116 313.234 149.084C313.277 149.053 313.323 149.037 313.376 149.037H314.549C314.602 149.037 314.638 149.058 314.658 149.098C314.678 149.14 314.678 149.182 314.665 149.225L312.912 154.167C312.896 154.215 312.863 154.255 312.82 154.286C312.777 154.317 312.73 154.333 312.674 154.333H311.743C311.69 154.333 311.64 154.317 311.597 154.286C311.554 154.255 311.524 154.215 311.511 154.167L310.716 151.758C310.699 151.709 310.673 151.685 310.637 151.685C310.603 151.685 310.577 151.709 310.564 151.758L309.765 154.167C309.752 154.215 309.722 154.255 309.679 154.286C309.636 154.317 309.586 154.333 309.533 154.333H308.602C308.549 154.333 308.5 154.315 308.457 154.279C308.414 154.243 308.387 154.205 308.377 154.167L306.641 149.247Z" fill="#FFFFFE"/>
<path fill-rule="evenodd" clip-rule="evenodd" d="M321.726 147.045C324.243 147.045 326.284 149.086 326.284 151.605C326.284 154.123 324.243 156.164 321.726 156.164C319.208 156.164 317.164 154.123 317.164 151.605C317.164 149.086 319.208 147.045 321.726 147.045Z" fill="#FFFFFE"/>
<path fill-rule="evenodd" clip-rule="evenodd" d="M320.477 152.355C320.669 152.58 320.868 152.748 321.063 152.86C321.262 152.972 321.467 153.027 321.676 153.027C321.845 153.027 321.984 152.979 322.097 152.881C322.209 152.783 322.262 152.661 322.262 152.515C322.262 152.354 322.216 152.231 322.123 152.145C322.03 152.059 321.818 151.97 321.484 151.88C320.977 151.741 320.626 151.567 320.42 151.36C320.215 151.152 320.116 150.867 320.116 150.505C320.116 150.06 320.255 149.7 320.536 149.422C320.815 149.145 321.206 148.982 321.709 148.93V148.462H322.146L322.15 148.924C322.345 148.944 322.537 148.989 322.726 149.061C322.915 149.131 323.1 149.229 323.286 149.352L322.855 150.313C322.706 150.185 322.551 150.089 322.391 150.023C322.232 149.957 322.07 149.925 321.911 149.925C321.749 149.925 321.62 149.963 321.52 150.038C321.421 150.114 321.371 150.212 321.371 150.333C321.371 150.457 321.418 150.556 321.504 150.63C321.593 150.703 321.765 150.775 322.02 150.841L322.064 150.855C322.617 151.004 322.981 151.168 323.153 151.348C323.269 151.469 323.359 151.614 323.422 151.783C323.485 151.952 323.515 152.138 323.515 152.343C323.515 152.81 323.372 153.198 323.09 153.507C322.806 153.815 322.428 153.993 321.954 154.042V154.862H321.517V154.056C321.199 154.051 320.904 153.992 320.639 153.878C320.371 153.762 320.112 153.585 319.867 153.345L320.477 152.355Z" fill="#E05769"/>
<path fill-rule="evenodd" clip-rule="evenodd" d="M269.562 20.639C266.484 20.639 263.41 20.639 260.356 20.639C257.288 20.639 254.214 20.639 251.156 20.639C249.888 26.5575 248.626 32.4803 247.363 38.3942C246.101 44.3098 244.829 50.227 243.57 56.1415C247.893 56.1415 252.236 56.1415 256.56 56.1415C260.886 56.1415 265.229 56.1415 269.562 56.1415C269.562 50.227 269.562 44.3091 269.562 38.3942C269.562 32.4793 269.562 26.5575 269.562 20.639Z" fill="#FFFFFE"/>
<path fill-rule="evenodd" clip-rule="evenodd" d="M251.158 20.639C245.016 20.639 238.884 20.639 232.752 20.639C230.228 26.5575 227.707 32.481 225.176 38.3942C222.645 44.3101 220.114 50.227 217.59 56.1415C226.246 56.1415 234.905 56.1415 243.572 56.1415C244.83 50.227 246.103 44.3098 247.365 38.3942C248.627 32.4803 249.889 26.5575 251.158 20.639Z" fill="#E05769"/>
<path fill-rule="evenodd" clip-rule="evenodd" d="M232.752 20.639C226.62 20.639 220.501 20.639 214.37 20.639C210.577 26.5575 206.79 32.4827 203 38.3942C199.204 44.3121 195.414 50.227 191.621 56.1415C200.277 56.1415 208.933 56.1415 217.59 56.1415C220.114 50.227 222.645 44.3101 225.176 38.3942C227.707 32.481 230.228 26.5575 232.752 20.639Z" fill="#FFFFFE"/>
<path fill-rule="evenodd" clip-rule="evenodd" d="M214.369 20.639C208.227 20.639 202.095 20.639 195.973 20.639C190.921 26.5575 185.866 32.4817 180.811 38.3942C175.752 44.3108 170.701 50.227 165.639 56.1415C174.295 56.1415 182.951 56.1415 191.62 56.1415C195.414 50.227 199.203 44.3121 203 38.3942C206.789 32.4827 210.576 26.5575 214.369 20.639Z" fill="#E05769"/>
<path fill-rule="evenodd" clip-rule="evenodd" d="M243.57 56.1415H269.562V60.4845C269.562 66.0685 262.158 67.3581 256.503 67.2998C249.113 67.2233 243.57 65.7064 243.57 60.7018V56.1415Z" fill="#E4E5E1"/>
<path fill-rule="evenodd" clip-rule="evenodd" d="M217.58 56.1415H243.572V60.4845C243.572 66.0685 236.168 67.3581 230.513 67.2998C223.122 67.2233 217.58 65.7064 217.58 60.7018V56.1415Z" fill="#C7384F"/>
<path fill-rule="evenodd" clip-rule="evenodd" d="M191.588 56.1415H217.58V60.4845C217.58 66.0685 210.176 67.3581 204.521 67.2998C197.13 67.2233 191.588 65.7064 191.588 60.7018V56.1415Z" fill="#E4E5E1"/>
<path fill-rule="evenodd" clip-rule="evenodd" d="M165.596 56.1415H191.587V60.4845C191.587 66.0685 184.183 67.3581 178.529 67.2998C171.138 67.2233 165.596 65.7064 165.596 60.7018V56.1415Z" fill="#C7384F"/>
<path fill-rule="evenodd" clip-rule="evenodd" d="M269.562 20.639C272.64 20.639 275.714 20.639 278.772 20.639C281.836 20.639 284.914 20.639 287.968 20.639C289.237 26.5575 290.499 32.4803 291.761 38.3942C293.023 44.3098 294.299 50.227 295.554 56.1415C291.231 56.1415 286.888 56.1415 282.565 56.1415C278.242 56.1415 273.896 56.1415 269.562 56.1415C269.562 50.227 269.562 44.3091 269.562 38.3942C269.562 32.4793 269.562 26.5575 269.562 20.639Z" fill="#E05769"/>
<path fill-rule="evenodd" clip-rule="evenodd" d="M287.969 20.639C294.111 20.639 300.242 20.639 306.374 20.639C308.899 26.5575 311.42 32.481 313.951 38.3942C316.481 44.3101 319.012 50.227 321.537 56.1415C312.88 56.1415 304.221 56.1415 295.555 56.1415C294.299 50.227 293.024 44.3098 291.762 38.3942C290.5 32.4803 289.238 26.5575 287.969 20.639Z" fill="#FFFFFE"/>
<path fill-rule="evenodd" clip-rule="evenodd" d="M306.373 20.639C312.505 20.639 318.624 20.639 324.755 20.639C328.548 26.5575 332.335 32.4827 336.125 38.3942C339.921 44.3121 343.711 50.227 347.504 56.1415C338.848 56.1415 330.192 56.1415 321.535 56.1415C319.011 50.227 316.48 44.3101 313.949 38.3942C311.418 32.481 308.897 26.5575 306.373 20.639Z" fill="#E05769"/>
<path fill-rule="evenodd" clip-rule="evenodd" d="M324.756 20.639C330.898 20.639 337.03 20.639 343.151 20.639C348.203 26.5575 353.259 32.4817 358.314 38.3942C363.372 44.3108 368.424 50.227 373.486 56.1415C364.83 56.1415 356.174 56.1415 347.504 56.1415C343.711 50.227 339.922 44.3121 336.125 38.3942C332.335 32.4827 328.549 26.5575 324.756 20.639Z" fill="#FFFFFE"/>
<path fill-rule="evenodd" clip-rule="evenodd" d="M295.554 56.1415H269.562V60.4845C269.562 66.0685 276.966 67.3581 282.621 67.2998C290.012 67.2233 295.554 65.7064 295.554 60.7018V56.1415Z" fill="#C7384F"/>
<path fill-rule="evenodd" clip-rule="evenodd" d="M321.546 56.1415H295.555V60.4845C295.555 66.0685 302.959 67.3581 308.613 67.2998C316.004 67.2233 321.546 65.7064 321.546 60.7018V56.1415Z" fill="#E4E5E1"/>
<path fill-rule="evenodd" clip-rule="evenodd" d="M347.539 56.1415H321.547V60.4845C321.547 66.0685 328.951 67.3581 334.606 67.2998C342 67.2233 347.539 65.7064 347.539 60.7018V56.1415Z" fill="#C7384F"/>
<path fill-rule="evenodd" clip-rule="evenodd" d="M373.529 56.1415H347.537V60.4845C347.537 66.0685 354.941 67.3581 360.596 67.2998C367.99 67.2233 373.529 65.7064 373.529 60.7018V56.1415Z" fill="#E4E5E1"/>
<path fill-rule="evenodd" clip-rule="evenodd" d="M327.194 164.629H320.389C319.386 164.629 318.564 165.45 318.564 166.453C318.564 167.456 319.386 168.276 320.389 168.276H327.194C328.198 168.276 329.019 167.456 329.019 166.453C329.019 165.45 328.198 164.629 327.194 164.629ZM327.194 179.703H320.389C319.386 179.703 318.564 180.525 318.564 181.528C318.564 182.532 319.386 183.35 320.389 183.35H327.194C328.198 183.35 329.019 182.532 329.019 181.528C329.019 180.525 328.198 179.703 327.194 179.703ZM312.833 179.703H274.819C273.816 179.703 272.994 180.525 272.994 181.528C272.994 182.532 273.816 183.35 274.819 183.35H312.833C313.833 183.35 314.655 182.532 314.655 181.528C314.655 180.525 313.833 179.703 312.833 179.703ZM327.194 172.166H320.389C319.386 172.166 318.564 172.988 318.564 173.99V173.991C318.564 174.993 319.386 175.814 320.389 175.814H327.194C328.198 175.814 329.019 174.993 329.019 173.991V173.99C329.019 172.988 328.198 172.166 327.194 172.166ZM312.833 164.629H274.819C273.816 164.629 272.994 165.45 272.994 166.453C272.994 167.456 273.816 168.276 274.819 168.276H312.833C313.833 168.276 314.655 167.456 314.655 166.453C314.655 165.45 313.833 164.629 312.833 164.629ZM312.833 172.166H274.819C273.816 172.166 272.994 172.988 272.994 173.99V173.991C272.994 174.993 273.816 175.814 274.819 175.814H312.833C313.833 175.814 314.655 174.993 314.655 173.991V173.99C314.655 172.988 313.833 172.166 312.833 172.166Z" fill="#FFFFFE"/>
<path fill-rule="evenodd" clip-rule="evenodd" d="M327.194 105.586H320.389C319.386 105.586 318.564 106.407 318.564 107.41V107.41C318.564 108.413 319.386 109.234 320.389 109.234H327.194C328.198 109.234 329.019 108.413 329.019 107.41V107.41C329.019 106.407 328.198 105.586 327.194 105.586ZM327.194 120.661H320.389C319.386 120.661 318.564 121.482 318.564 122.485V122.486C318.564 123.488 319.386 124.309 320.389 124.309H327.194C328.198 124.309 329.019 123.488 329.019 122.486V122.485C329.019 121.482 328.198 120.661 327.194 120.661ZM312.833 120.661H274.819C273.816 120.661 272.994 121.482 272.994 122.485V122.486C272.994 123.488 273.816 124.309 274.819 124.309H312.833C313.833 124.309 314.655 123.488 314.655 122.486V122.485C314.655 121.482 313.833 120.661 312.833 120.661ZM327.194 113.123H320.389C319.386 113.123 318.564 113.944 318.564 114.947C318.564 115.951 319.386 116.771 320.389 116.771H327.194C328.198 116.771 329.019 115.951 329.019 114.947C329.019 113.944 328.198 113.123 327.194 113.123ZM312.833 105.586H274.819C273.816 105.586 272.994 106.407 272.994 107.41V107.41C272.994 108.413 273.816 109.234 274.819 109.234H312.833C313.833 109.234 314.655 108.413 314.655 107.41V107.41C314.655 106.407 313.833 105.586 312.833 105.586ZM312.833 113.123H274.819C273.816 113.123 272.994 113.944 272.994 114.947C272.994 115.951 273.816 116.771 274.819 116.771H312.833C313.833 116.771 314.655 115.951 314.655 114.947C314.655 113.944 313.833 113.123 312.833 113.123Z" fill="#FFFFFE"/>
<path fill-rule="evenodd" clip-rule="evenodd" d="M278.815 86.3185H322.371C326.028 86.3185 329.016 89.3083 329.016 92.9632V92.9639C329.016 96.6185 326.028 99.6092 322.371 99.6092H278.815C275.158 99.6092 272.17 96.6185 272.17 92.9639V92.9632C272.17 89.3083 275.158 86.3185 278.815 86.3185Z" fill="#E05769"/>
<path fill-rule="evenodd" clip-rule="evenodd" d="M281.657 92.8844C281.733 92.9278 281.809 92.9808 281.889 93.043C281.965 93.106 282.034 93.1828 282.101 93.2753C282.167 93.3667 282.22 93.4727 282.26 93.5936C282.299 93.7142 282.323 93.8513 282.323 94.0057C282.323 94.3194 282.273 94.5788 282.174 94.7836C282.074 94.9883 281.942 95.1526 281.773 95.2758C281.604 95.3987 281.408 95.4852 281.19 95.5359C280.971 95.5866 280.739 95.6117 280.497 95.6117H278.205C278.155 95.6117 278.115 95.5948 278.082 95.5614C278.049 95.5273 278.029 95.4862 278.029 95.4385V90.4893C278.029 90.4412 278.049 90.4001 278.082 90.3657C278.115 90.3329 278.155 90.316 278.205 90.316H280.388C280.623 90.316 280.842 90.3412 281.057 90.3915C281.269 90.4422 281.455 90.5257 281.617 90.641C281.779 90.7573 281.909 90.908 282.008 91.0942C282.104 91.2793 282.157 91.5073 282.157 91.7776C282.157 91.9942 282.101 92.1821 281.991 92.3417C281.882 92.5007 281.766 92.626 281.64 92.7181C281.554 92.7807 281.561 92.836 281.657 92.8844ZM279.636 92.3272H280.308C280.408 92.3272 280.484 92.2901 280.54 92.2152C280.6 92.14 280.63 92.0568 280.63 91.9651C280.63 91.8786 280.593 91.8041 280.524 91.7408C280.454 91.6779 280.388 91.6471 280.325 91.6471H279.636C279.59 91.6471 279.547 91.6636 279.513 91.6974C279.48 91.7315 279.464 91.7726 279.464 91.821V92.1532C279.464 92.2019 279.48 92.2424 279.513 92.2768C279.547 92.3103 279.59 92.3272 279.636 92.3272ZM280.398 93.5211H279.636C279.59 93.5211 279.547 93.538 279.513 93.5714C279.48 93.6052 279.464 93.6463 279.464 93.6947V94.1074C279.464 94.1558 279.48 94.1965 279.513 94.2303C279.547 94.2641 279.59 94.281 279.636 94.281H280.448C280.534 94.281 280.617 94.2446 280.693 94.1727C280.772 94.1005 280.809 94.0153 280.809 93.9189C280.809 93.8321 280.772 93.7443 280.696 93.6546C280.623 93.5655 280.52 93.5211 280.398 93.5211ZM282.863 90.4965C282.863 90.4482 282.879 90.4074 282.912 90.3736C282.949 90.3399 282.988 90.3223 283.035 90.3223H284.121C284.171 90.3223 284.211 90.3399 284.244 90.3736C284.277 90.4074 284.297 90.4482 284.297 90.4965V93.427C284.297 93.6155 284.327 93.7702 284.386 93.8938C284.446 94.0167 284.522 94.1127 284.612 94.1826C284.701 94.2532 284.797 94.3025 284.9 94.3314C284.999 94.3605 285.092 94.3748 285.175 94.3748C285.258 94.3748 285.35 94.3605 285.45 94.3314C285.553 94.3025 285.649 94.2532 285.735 94.1826C285.821 94.1127 285.894 94.0167 285.957 93.8938C286.016 93.7702 286.046 93.6155 286.046 93.427V90.4965C286.046 90.4482 286.063 90.4074 286.096 90.3736C286.132 90.3399 286.172 90.3223 286.218 90.3223H287.305C287.355 90.3223 287.394 90.3399 287.428 90.3736C287.461 90.4074 287.481 90.4482 287.481 90.4965V93.427C287.481 93.7699 287.424 94.0803 287.315 94.3605C287.209 94.6398 287.053 94.8786 286.851 95.0771C286.649 95.2745 286.404 95.4275 286.122 95.5359C285.837 95.6449 285.523 95.6992 285.175 95.6992C284.827 95.6992 284.512 95.6449 284.227 95.5359C283.946 95.4275 283.701 95.2745 283.499 95.0771C283.297 94.8786 283.141 94.6398 283.028 94.3605C282.919 94.0803 282.863 93.7699 282.863 93.427V90.4965ZM292.804 90.5257L290.995 93.4558C290.972 93.4992 290.949 93.5522 290.929 93.6155C290.909 93.6778 290.899 93.7334 290.899 93.7818V95.4385C290.899 95.4862 290.883 95.5273 290.85 95.5614C290.816 95.5948 290.777 95.6117 290.727 95.6117H289.64C289.591 95.6117 289.551 95.5948 289.518 95.5614C289.485 95.5273 289.468 95.4862 289.468 95.4385V93.7887C289.468 93.7407 289.458 93.6834 289.442 93.6185C289.425 93.5532 289.405 93.5015 289.382 93.4631C289.091 92.9662 288.796 92.4789 288.494 92.0015C288.193 91.5238 287.891 91.0319 287.593 90.5257C287.57 90.4823 287.567 90.4376 287.58 90.3915C287.593 90.3461 287.626 90.3223 287.673 90.3223H288.961C289.011 90.3223 289.057 90.3375 289.11 90.3657C289.16 90.3955 289.197 90.4316 289.223 90.4747L290.108 92.0231C290.131 92.0615 290.161 92.081 290.194 92.081C290.23 92.081 290.257 92.0615 290.283 92.0231L291.161 90.4747C291.184 90.4316 291.224 90.3955 291.274 90.3657C291.323 90.3375 291.373 90.3223 291.423 90.3223H292.725C292.771 90.3223 292.807 90.3399 292.827 90.3736C292.85 90.4074 292.841 90.4581 292.804 90.5257ZM300.596 90.4893V95.4385C300.596 95.4862 300.579 95.5273 300.543 95.5614C300.509 95.5948 300.47 95.6117 300.42 95.6117H299.353C299.304 95.6117 299.254 95.5978 299.201 95.5683C299.148 95.5395 299.108 95.5057 299.078 95.4673L297.193 92.8121C297.164 92.7734 297.134 92.7578 297.104 92.7644C297.071 92.7724 297.058 92.7999 297.058 92.8479V95.4385C297.058 95.4862 297.041 95.5273 297.005 95.5614C296.971 95.5948 296.928 95.6117 296.882 95.6117H295.799C295.752 95.6117 295.709 95.5948 295.673 95.5614C295.64 95.5273 295.623 95.4862 295.623 95.4385V90.4893C295.623 90.4412 295.64 90.4001 295.673 90.3657C295.709 90.3329 295.749 90.316 295.799 90.316H296.882C296.932 90.316 296.981 90.3286 297.034 90.3554C297.087 90.3819 297.127 90.4147 297.157 90.4531L299.039 93.1086C299.068 93.1471 299.098 93.1643 299.128 93.1596C299.161 93.154 299.178 93.1275 299.178 93.0795V90.4893C299.178 90.4412 299.194 90.4001 299.227 90.3657C299.261 90.3329 299.304 90.316 299.35 90.316H300.42C300.47 90.316 300.509 90.3329 300.543 90.3657C300.579 90.4001 300.596 90.4412 300.596 90.4893ZM301.159 92.9639C301.159 92.5872 301.232 92.2334 301.374 91.9001C301.52 91.5672 301.715 91.277 301.96 91.0282C302.206 90.7801 302.497 90.5833 302.828 90.4389C303.163 90.2945 303.517 90.2216 303.892 90.2216C304.269 90.2216 304.624 90.2945 304.955 90.4389C305.29 90.5833 305.581 90.7801 305.83 91.0282C306.078 91.277 306.274 91.5672 306.419 91.9001C306.562 92.2334 306.635 92.5872 306.635 92.9639C306.635 93.3402 306.562 93.6947 306.419 94.0273C306.274 94.3605 306.078 94.6507 305.83 94.8995C305.581 95.1473 305.29 95.3444 304.955 95.4888C304.624 95.6336 304.269 95.7061 303.892 95.7061C303.517 95.7061 303.163 95.6336 302.828 95.4888C302.497 95.3444 302.206 95.1473 301.96 94.8995C301.715 94.6507 301.52 94.3605 301.374 94.0273C301.232 93.6947 301.159 93.3402 301.159 92.9639ZM302.59 92.9639C302.59 93.1471 302.623 93.3206 302.693 93.4846C302.759 93.6486 302.852 93.7937 302.971 93.9189C303.087 94.0441 303.226 94.1449 303.385 94.2194C303.544 94.2943 303.716 94.3314 303.892 94.3314C304.071 94.3314 304.24 94.2943 304.399 94.2194C304.558 94.1449 304.697 94.0441 304.819 93.9189C304.939 93.7937 305.035 93.6486 305.101 93.4846C305.167 93.3206 305.204 93.1471 305.204 92.9639C305.204 92.785 305.167 92.613 305.101 92.4468C305.035 92.2805 304.939 92.1357 304.819 92.0125C304.697 91.8895 304.558 91.7905 304.399 91.7163C304.24 91.6408 304.071 91.6037 303.892 91.6037C303.716 91.6037 303.544 91.6408 303.385 91.7163C303.226 91.7905 303.087 91.8895 302.971 92.0125C302.852 92.1357 302.759 92.2805 302.693 92.4468C302.623 92.613 302.59 92.785 302.59 92.9639ZM306.641 90.5257C306.615 90.4677 306.615 90.4184 306.638 90.3773C306.658 90.3362 306.698 90.316 306.751 90.316H307.93C307.976 90.316 308.023 90.3316 308.066 90.363C308.109 90.3942 308.139 90.4316 308.152 90.4747L308.977 92.8844C308.993 92.9324 309.017 92.9566 309.053 92.9566C309.089 92.9566 309.116 92.9324 309.129 92.8844L309.924 90.4823C309.941 90.4336 309.971 90.3942 310.014 90.363C310.057 90.3316 310.103 90.316 310.156 90.316H311.12C311.173 90.316 311.22 90.3316 311.266 90.363C311.309 90.3942 311.336 90.4336 311.352 90.4823L312.147 92.8989C312.16 92.9466 312.187 92.9712 312.223 92.9712C312.26 92.9712 312.286 92.9466 312.306 92.8989L313.138 90.4747C313.158 90.4316 313.191 90.3942 313.234 90.363C313.277 90.3316 313.323 90.316 313.376 90.316H314.549C314.602 90.316 314.638 90.3362 314.658 90.3773C314.678 90.4184 314.678 90.4601 314.665 90.5035L312.912 95.4454C312.896 95.4938 312.863 95.5336 312.82 95.5647C312.777 95.5962 312.73 95.6117 312.674 95.6117H311.743C311.69 95.6117 311.64 95.5962 311.597 95.5647C311.554 95.5336 311.524 95.4938 311.511 95.4454L310.716 93.0361C310.699 92.9877 310.673 92.9639 310.637 92.9639C310.603 92.9639 310.577 92.9877 310.564 93.0361L309.765 95.4454C309.752 95.4938 309.722 95.5336 309.679 95.5647C309.636 95.5962 309.586 95.6117 309.533 95.6117H308.602C308.549 95.6117 308.5 95.5938 308.457 95.5574C308.414 95.5213 308.387 95.4842 308.377 95.4454L306.641 90.5257Z" fill="#FFFFFE"/>
<path fill-rule="evenodd" clip-rule="evenodd" d="M321.726 88.3231C324.243 88.3231 326.284 90.3644 326.284 92.883C326.284 95.4017 324.243 97.4427 321.726 97.4427C319.208 97.4427 317.164 95.4017 317.164 92.883C317.164 90.3644 319.208 88.3231 321.726 88.3231Z" fill="#FFFFFE"/>
<path fill-rule="evenodd" clip-rule="evenodd" d="M320.477 93.634C320.669 93.8586 320.868 94.0266 321.063 94.1386C321.262 94.2502 321.467 94.3055 321.676 94.3055C321.845 94.3055 321.984 94.2572 322.097 94.1594C322.209 94.061 322.262 93.9391 322.262 93.793C322.262 93.633 322.216 93.5101 322.123 93.4233C322.03 93.3372 321.818 93.2484 321.484 93.159C320.977 93.0192 320.626 92.8459 320.42 92.6389C320.215 92.4305 320.116 92.1453 320.116 91.7842C320.116 91.3383 320.255 90.9782 320.536 90.7006C320.815 90.4243 321.206 90.261 321.709 90.2093V89.7409H322.146L322.15 90.202C322.345 90.2232 322.537 90.2676 322.726 90.3392C322.915 90.4091 323.1 90.5075 323.286 90.6307L322.855 91.5921C322.706 91.4632 322.551 91.3675 322.391 91.3019C322.232 91.2359 322.07 91.2038 321.911 91.2038C321.749 91.2038 321.62 91.2422 321.52 91.3168C321.421 91.3926 321.371 91.491 321.371 91.6113C321.371 91.7358 321.418 91.8346 321.504 91.9084C321.593 91.982 321.765 92.0532 322.02 92.1201L322.064 92.134C322.617 92.2824 322.981 92.4474 323.153 92.6273C323.269 92.7475 323.359 92.8926 323.422 93.0619C323.485 93.2309 323.515 93.4164 323.515 93.6214C323.515 94.0889 323.372 94.4771 323.09 94.7855C322.806 95.0933 322.428 95.2715 321.954 95.3209V96.1404H321.517V95.3348C321.199 95.3298 320.904 95.2702 320.639 95.1562C320.371 95.0409 320.112 94.8637 319.867 94.6235L320.477 93.634Z" fill="#E05769"/>
<path fill-rule="evenodd" clip-rule="evenodd" d="M225.176 200.189H252.632C259.407 200.189 264.945 205.731 264.945 212.506V239.962C264.945 246.736 259.407 252.278 252.632 252.278H225.176C218.402 252.278 212.859 246.736 212.859 239.962V212.506C212.859 205.731 218.402 200.189 225.176 200.189Z" fill="#FFFFFE"/>
<path fill-rule="evenodd" clip-rule="evenodd" d="M278.815 206.394H322.371C326.028 206.394 329.016 209.385 329.016 213.039C329.016 216.696 326.028 219.684 322.371 219.684H278.815C275.158 219.684 272.17 216.696 272.17 213.039C272.17 209.385 275.158 206.394 278.815 206.394Z" fill="#E05769"/>
<path fill-rule="evenodd" clip-rule="evenodd" d="M281.657 212.96C281.733 213.003 281.809 213.056 281.889 213.119C281.965 213.182 282.034 213.258 282.101 213.351C282.167 213.443 282.22 213.549 282.26 213.669C282.299 213.791 282.323 213.927 282.323 214.083C282.323 214.394 282.273 214.656 282.174 214.858C282.074 215.063 281.942 215.229 281.773 215.351C281.604 215.474 281.408 215.56 281.19 215.613C280.971 215.663 280.739 215.689 280.497 215.689H278.205C278.155 215.689 278.115 215.673 278.082 215.636C278.049 215.603 278.029 215.563 278.029 215.514V210.565C278.029 210.518 278.049 210.475 278.082 210.442C278.115 210.409 278.155 210.392 278.205 210.392H280.388C280.623 210.392 280.842 210.415 281.057 210.468C281.269 210.518 281.455 210.601 281.617 210.717C281.779 210.833 281.909 210.985 282.008 211.171C282.104 211.356 282.157 211.585 282.157 211.853C282.157 212.072 282.101 212.257 281.991 212.416C281.882 212.575 281.766 212.701 281.64 212.794C281.554 212.857 281.561 212.913 281.657 212.96ZM279.636 212.403H280.308C280.408 212.403 280.484 212.367 280.54 212.29C280.6 212.218 280.63 212.131 280.63 212.042C280.63 211.956 280.593 211.88 280.524 211.817C280.454 211.754 280.388 211.724 280.325 211.724H279.636C279.59 211.724 279.547 211.741 279.513 211.774C279.48 211.807 279.464 211.85 279.464 211.896V212.231C279.464 212.277 279.48 212.317 279.513 212.353C279.547 212.387 279.59 212.403 279.636 212.403ZM280.398 213.596H279.636C279.59 213.596 279.547 213.616 279.513 213.649C279.48 213.682 279.464 213.722 279.464 213.771V214.182C279.464 214.232 279.48 214.271 279.513 214.305C279.547 214.341 279.59 214.358 279.636 214.358H280.448C280.534 214.358 280.617 214.321 280.693 214.248C280.772 214.175 280.809 214.093 280.809 213.997C280.809 213.907 280.772 213.821 280.696 213.732C280.623 213.642 280.52 213.596 280.398 213.596ZM282.863 210.571C282.863 210.525 282.879 210.485 282.912 210.449C282.949 210.415 282.988 210.399 283.035 210.399H284.121C284.171 210.399 284.211 210.415 284.244 210.449C284.277 210.485 284.297 210.525 284.297 210.571V213.503C284.297 213.692 284.327 213.847 284.386 213.97C284.446 214.093 284.522 214.189 284.612 214.258C284.701 214.328 284.797 214.377 284.9 214.407C284.999 214.437 285.092 214.45 285.175 214.45C285.258 214.45 285.35 214.437 285.45 214.407C285.553 214.377 285.649 214.328 285.735 214.258C285.821 214.189 285.894 214.093 285.957 213.97C286.016 213.847 286.046 213.692 286.046 213.503V210.571C286.046 210.525 286.063 210.485 286.096 210.449C286.132 210.415 286.172 210.399 286.218 210.399H287.305C287.355 210.399 287.394 210.415 287.428 210.449C287.461 210.485 287.481 210.525 287.481 210.571V213.503C287.481 213.847 287.424 214.156 287.315 214.437C287.209 214.715 287.053 214.954 286.851 215.153C286.649 215.351 286.404 215.504 286.122 215.613C285.837 215.719 285.523 215.775 285.175 215.775C284.827 215.775 284.512 215.719 284.227 215.613C283.946 215.504 283.701 215.351 283.499 215.153C283.297 214.954 283.141 214.715 283.028 214.437C282.919 214.156 282.863 213.847 282.863 213.503V210.571ZM292.804 210.601L290.995 213.533C290.972 213.576 290.949 213.629 290.929 213.692C290.909 213.755 290.899 213.811 290.899 213.857V215.514C290.899 215.563 290.883 215.603 290.85 215.636C290.816 215.673 290.777 215.689 290.727 215.689H289.64C289.591 215.689 289.551 215.673 289.518 215.636C289.485 215.603 289.468 215.563 289.468 215.514V213.864C289.468 213.818 289.458 213.758 289.442 213.695C289.425 213.629 289.405 213.579 289.382 213.539C289.091 213.042 288.796 212.555 288.494 212.078C288.193 211.601 287.891 211.108 287.593 210.601C287.57 210.558 287.567 210.515 287.58 210.468C287.593 210.422 287.626 210.399 287.673 210.399H288.961C289.011 210.399 289.057 210.412 289.11 210.442C289.16 210.472 289.197 210.508 289.223 210.551L290.108 212.098C290.131 212.138 290.161 212.158 290.194 212.158C290.23 212.158 290.257 212.138 290.283 212.098L291.161 210.551C291.184 210.508 291.224 210.472 291.274 210.442C291.323 210.412 291.373 210.399 291.423 210.399H292.725C292.771 210.399 292.807 210.415 292.827 210.449C292.85 210.485 292.841 210.535 292.804 210.601ZM300.596 210.565V215.514C300.596 215.563 300.579 215.603 300.543 215.636C300.509 215.673 300.47 215.689 300.42 215.689H299.353C299.304 215.689 299.254 215.673 299.201 215.646C299.148 215.616 299.108 215.583 299.078 215.544L297.193 212.887C297.164 212.85 297.134 212.834 297.104 212.84C297.071 212.847 297.058 212.877 297.058 212.923V215.514C297.058 215.563 297.041 215.603 297.005 215.636C296.971 215.673 296.928 215.689 296.882 215.689H295.799C295.752 215.689 295.709 215.673 295.673 215.636C295.64 215.603 295.623 215.563 295.623 215.514V210.565C295.623 210.518 295.64 210.475 295.673 210.442C295.709 210.409 295.749 210.392 295.799 210.392H296.882C296.932 210.392 296.981 210.406 297.034 210.432C297.087 210.459 297.127 210.492 297.157 210.528L299.039 213.185C299.068 213.221 299.098 213.241 299.128 213.235C299.161 213.231 299.178 213.205 299.178 213.155V210.565C299.178 210.518 299.194 210.475 299.227 210.442C299.261 210.409 299.304 210.392 299.35 210.392H300.42C300.47 210.392 300.509 210.409 300.543 210.442C300.579 210.475 300.596 210.518 300.596 210.565ZM301.159 213.039C301.159 212.665 301.232 212.31 301.374 211.976C301.52 211.644 301.715 211.353 301.96 211.105C302.206 210.856 302.497 210.661 302.828 210.515C303.163 210.369 303.517 210.296 303.892 210.296C304.269 210.296 304.624 210.369 304.955 210.515C305.29 210.661 305.581 210.856 305.83 211.105C306.078 211.353 306.274 211.644 306.419 211.976C306.562 212.31 306.635 212.665 306.635 213.039C306.635 213.417 306.562 213.771 306.419 214.103C306.274 214.437 306.078 214.725 305.83 214.977C305.581 215.222 305.29 215.421 304.955 215.563C304.624 215.709 304.269 215.782 303.892 215.782C303.517 215.782 303.163 215.709 302.828 215.563C302.497 215.421 302.206 215.222 301.96 214.977C301.715 214.725 301.52 214.437 301.374 214.103C301.232 213.771 301.159 213.417 301.159 213.039ZM302.59 213.039C302.59 213.221 302.623 213.397 302.693 213.559C302.759 213.725 302.852 213.871 302.971 213.997C303.087 214.119 303.226 214.222 303.385 214.295C303.544 214.371 303.716 214.407 303.892 214.407C304.071 214.407 304.24 214.371 304.399 214.295C304.558 214.222 304.697 214.119 304.819 213.997C304.939 213.871 305.035 213.725 305.101 213.559C305.167 213.397 305.204 213.221 305.204 213.039C305.204 212.86 305.167 212.688 305.101 212.522C305.035 212.357 304.939 212.211 304.819 212.088C304.697 211.966 304.558 211.866 304.399 211.79C304.24 211.717 304.071 211.681 303.892 211.681C303.716 211.681 303.544 211.717 303.385 211.79C303.226 211.866 303.087 211.966 302.971 212.088C302.852 212.211 302.759 212.357 302.693 212.522C302.623 212.688 302.59 212.86 302.59 213.039ZM306.641 210.601C306.615 210.545 306.615 210.495 306.638 210.452C306.658 210.412 306.698 210.392 306.751 210.392H307.93C307.976 210.392 308.023 210.406 308.066 210.439C308.109 210.472 308.139 210.508 308.152 210.551L308.977 212.96C308.993 213.009 309.017 213.033 309.053 213.033C309.089 213.033 309.116 213.009 309.129 212.96L309.924 210.558C309.941 210.508 309.971 210.472 310.014 210.439C310.057 210.406 310.103 210.392 310.156 210.392H311.12C311.173 210.392 311.22 210.406 311.266 210.439C311.309 210.472 311.336 210.508 311.352 210.558L312.147 212.976C312.16 213.023 312.187 213.046 312.223 213.046C312.26 213.046 312.286 213.023 312.306 212.976L313.138 210.551C313.158 210.508 313.191 210.472 313.234 210.439C313.277 210.406 313.323 210.392 313.376 210.392H314.549C314.602 210.392 314.638 210.412 314.658 210.452C314.678 210.495 314.678 210.538 314.665 210.581L312.912 215.52C312.896 215.57 312.863 215.61 312.82 215.64C312.777 215.673 312.73 215.689 312.674 215.689H311.743C311.69 215.689 311.64 215.673 311.597 215.64C311.554 215.61 311.524 215.57 311.511 215.52L310.716 213.112C310.699 213.066 310.673 213.039 310.637 213.039C310.603 213.039 310.577 213.066 310.564 213.112L309.765 215.52C309.752 215.57 309.722 215.61 309.679 215.64C309.636 215.673 309.586 215.689 309.533 215.689H308.602C308.549 215.689 308.5 215.669 308.457 215.633C308.414 215.597 308.387 215.56 308.377 215.52L306.641 210.601Z" fill="#FFFFFE"/>
<path fill-rule="evenodd" clip-rule="evenodd" d="M321.726 208.398C324.243 208.398 326.284 210.442 326.284 212.96C326.284 215.477 324.243 217.518 321.726 217.518C319.208 217.518 317.164 215.477 317.164 212.96C317.164 210.442 319.208 208.398 321.726 208.398Z" fill="#FFFFFE"/>
<path fill-rule="evenodd" clip-rule="evenodd" d="M320.477 213.712C320.669 213.934 320.868 214.103 321.063 214.215C321.262 214.328 321.467 214.381 321.676 214.381C321.845 214.381 321.984 214.334 322.097 214.235C322.209 214.136 322.262 214.016 322.262 213.867C322.262 213.708 322.216 213.586 322.123 213.5C322.03 213.413 321.818 213.324 321.484 213.235C320.977 213.095 320.626 212.92 320.42 212.714C320.215 212.506 320.116 212.221 320.116 211.86C320.116 211.416 320.255 211.055 320.536 210.777C320.815 210.502 321.206 210.336 321.709 210.286V209.816H322.146L322.15 210.28C322.345 210.3 322.537 210.343 322.726 210.415C322.915 210.485 323.1 210.584 323.286 210.707L322.855 211.668C322.706 211.538 322.551 211.442 322.391 211.379C322.232 211.313 322.07 211.28 321.911 211.28C321.749 211.28 321.62 211.317 321.52 211.393C321.421 211.469 321.371 211.565 321.371 211.688C321.371 211.813 321.418 211.91 321.504 211.986C321.593 212.059 321.765 212.128 322.02 212.198L322.064 212.211C322.617 212.36 322.981 212.522 323.153 212.701C323.269 212.824 323.359 212.97 323.422 213.139C323.485 213.307 323.515 213.493 323.515 213.698C323.515 214.165 323.372 214.553 323.09 214.861C322.806 215.169 322.428 215.348 321.954 215.398V216.216H321.517V215.411C321.199 215.404 320.904 215.345 320.639 215.232C320.371 215.116 320.112 214.941 319.867 214.699L320.477 213.712Z" fill="#E05769"/>
<path fill-rule="evenodd" clip-rule="evenodd" d="M327.194 225.982H320.389C319.386 225.982 318.564 226.804 318.564 227.807C318.564 228.811 319.386 229.629 320.389 229.629H327.194C328.198 229.629 329.019 228.811 329.019 227.807C329.019 226.804 328.198 225.982 327.194 225.982ZM327.194 241.058H320.389C319.386 241.058 318.564 241.88 318.564 242.884C318.564 243.887 319.386 244.706 320.389 244.706H327.194C328.198 244.706 329.019 243.887 329.019 242.884C329.019 241.88 328.198 241.058 327.194 241.058ZM312.833 241.058H274.819C273.816 241.058 272.994 241.88 272.994 242.884C272.994 243.887 273.816 244.706 274.819 244.706H312.833C313.833 244.706 314.655 243.887 314.655 242.884C314.655 241.88 313.833 241.058 312.833 241.058ZM327.194 233.522H320.389C319.386 233.522 318.564 234.343 318.564 235.344C318.564 236.348 319.386 237.169 320.389 237.169H327.194C328.198 237.169 329.019 236.348 329.019 235.344C329.019 234.343 328.198 233.522 327.194 233.522ZM312.833 225.982H274.819C273.816 225.982 272.994 226.804 272.994 227.807C272.994 228.811 273.816 229.629 274.819 229.629H312.833C313.833 229.629 314.655 228.811 314.655 227.807C314.655 226.804 313.833 225.982 312.833 225.982ZM312.833 233.522H274.819C273.816 233.522 272.994 234.343 272.994 235.344C272.994 236.348 273.816 237.169 274.819 237.169H312.833C313.833 237.169 314.655 236.348 314.655 235.344C314.655 234.343 313.833 233.522 312.833 233.522Z" fill="#FFFFFE"/>
<path fill-rule="evenodd" clip-rule="evenodd" d="M355.943 31.0628C371.122 31.0628 383.425 43.3683 383.425 58.5466C383.425 73.7262 371.122 86.0303 355.943 86.0303C340.764 86.0303 328.457 73.7262 328.457 58.5466C328.457 43.3683 340.764 31.0628 355.943 31.0628Z" fill="#F2B432"/>
<path fill-rule="evenodd" clip-rule="evenodd" d="M348.061 55.9524C348.846 55.9524 349.416 55.6115 349.763 54.9287C350.115 54.247 350.287 53.1279 350.287 51.572C350.287 50.0156 350.115 48.8963 349.763 48.2138C349.416 47.5324 348.846 47.1905 348.061 47.1905C347.279 47.1905 346.709 47.5324 346.361 48.2138C346.01 48.8963 345.835 50.0156 345.835 51.572C345.835 53.1279 346.01 54.247 346.361 54.9287C346.709 55.6115 347.279 55.9524 348.061 55.9524ZM354.67 51.5776C354.67 53.7325 354.07 55.4439 352.874 56.7246C351.675 58.0053 350.071 58.6453 348.061 58.6453C346.04 58.6453 344.437 58.0112 343.244 56.7365C342.051 55.4621 341.455 53.7441 341.455 51.5776C341.455 49.417 342.051 47.6994 343.244 46.4187C344.437 45.1376 346.04 44.4976 348.061 44.4976C350.085 44.4976 351.688 45.1376 352.881 46.4187C354.07 47.6994 354.67 49.417 354.67 51.5776ZM365.873 68.4129C366.655 68.4129 367.225 68.0714 367.573 67.3836C367.924 66.6952 368.099 65.5696 368.099 64.0083C368.099 62.4579 367.924 61.3386 367.573 60.6628C367.225 59.986 366.655 59.6514 365.873 59.6514C365.088 59.6514 364.518 59.986 364.174 60.6628C363.819 61.3386 363.647 62.4579 363.647 64.0083C363.647 65.5696 363.819 66.6952 364.174 67.3836C364.518 68.0714 365.088 68.4129 365.873 68.4129ZM372.479 64.0083C372.479 66.1741 371.883 67.8978 370.69 69.1841C369.494 70.4658 367.894 71.1058 365.89 71.1058C363.862 71.1058 362.252 70.4658 361.053 69.1841C359.864 67.8978 359.264 66.1741 359.264 64.0083C359.264 61.8474 359.864 60.1357 361.053 58.8669C362.252 57.5922 363.862 56.9581 365.89 56.9581C367.907 56.9581 369.504 57.5922 370.697 58.8669C371.886 60.1357 372.479 61.8474 372.479 64.0083ZM347.481 71.1058L362.862 44.4976H366.155L350.664 71.1058H347.481Z" fill="#FFFFFE"/>
<path fill-rule="evenodd" clip-rule="evenodd" d="M373.686 170.01L373.831 147.973C373.864 142.541 376.077 137.647 379.622 134.094C383.17 130.546 388.043 128.365 393.419 128.377C398.796 128.395 403.639 130.603 407.141 134.171C410.639 137.743 412.782 142.649 412.749 148.081L412.603 170.118C412.597 170.931 413.243 171.593 414.051 171.596C414.856 171.598 415.515 170.939 415.522 170.126L415.668 148.089C415.747 135.608 405.799 125.465 393.439 125.43C381.08 125.396 370.992 135.484 370.909 147.965L370.764 170.002C370.76 170.816 371.41 171.478 372.215 171.48C373.02 171.483 373.679 170.823 373.686 170.01Z" fill="#933030"/>
<mask id="mask0" mask-type="alpha" maskUnits="userSpaceOnUse" x="320" y="159" width="101" height="126">
<path fill-rule="evenodd" clip-rule="evenodd" d="M420.309 159.515L409.075 284.511L320.453 284.266L331.683 159.27" fill="white"/>
</mask>
<g mask="url(#mask0)">
<path fill-rule="evenodd" clip-rule="evenodd" d="M420.309 159.515L331.683 159.27L320.453 284.266L409.075 284.511L420.309 159.515Z" fill="url(#paint0_linear)"/>
</g>
<path fill-rule="evenodd" clip-rule="evenodd" d="M435.851 159.558L420.308 159.515L409.074 284.511L445.428 284.611L435.851 159.558Z" fill="#DE6A2C"/>
<path fill-rule="evenodd" clip-rule="evenodd" d="M409.074 284.511L427.36 268.117L445.428 284.611L409.074 284.511Z" fill="#C9622D"/>
<path fill-rule="evenodd" clip-rule="evenodd" d="M351.297 171.624C351.31 169.6 352.947 167.964 354.951 167.97C356.955 167.975 358.568 169.62 358.555 171.644C358.542 173.668 356.905 175.305 354.901 175.299C352.897 175.294 351.284 173.649 351.297 171.624Z" fill="#933030"/>
<path fill-rule="evenodd" clip-rule="evenodd" d="M393.131 171.74C393.144 169.716 394.781 168.08 396.788 168.085C398.789 168.091 400.409 169.736 400.396 171.76C400.379 173.784 398.743 175.42 396.739 175.415C394.731 175.409 393.118 173.764 393.131 171.74Z" fill="#933030"/>
<path fill-rule="evenodd" clip-rule="evenodd" d="M356.395 169.962L356.544 147.925C356.577 142.493 358.787 137.599 362.332 134.047C365.883 130.499 370.749 128.317 376.129 128.33C381.509 128.348 386.349 130.555 389.854 134.123C393.352 137.695 395.495 142.601 395.462 148.033L395.316 170.07C395.31 170.883 395.956 171.546 396.764 171.548C397.569 171.55 398.228 170.892 398.235 170.078L398.381 148.041C398.46 135.56 388.509 125.417 376.149 125.382C363.789 125.348 353.705 135.436 353.626 147.917L353.477 169.954C353.473 170.767 354.123 171.43 354.928 171.432C355.733 171.434 356.392 170.776 356.395 169.962Z" fill="#933030"/>
<path fill-rule="evenodd" clip-rule="evenodd" d="M358.971 211.499H363.072L362.28 208.444H360.75C359.766 208.444 358.967 207.646 358.967 206.662C358.967 205.675 359.766 204.877 360.75 204.877H393.986L390.71 224.76C390.458 226.277 389.146 227.39 387.609 227.39H365.914C364.052 227.565 363.771 228.38 362.449 229.702C361.369 230.782 361.273 231.65 360.942 233.118H384.611C385.588 233.118 386.384 234.877 386.384 235.854C386.384 236.831 386.526 236.003 385.549 236.003H357.655L356.718 235.854C356.718 232.462 358.202 228.821 360.683 226.658C360.243 226.287 359.902 225.8 359.716 225.227L352.282 202.548C352.136 202.1 351.719 201.802 351.252 201.802H348.612C347.628 201.802 346.826 201.001 346.826 200.017C346.826 199.03 347.628 198.231 348.612 198.231H351.252C353.263 198.231 355.048 199.526 355.674 201.438L358.971 211.499ZM365.351 208.444L366.139 211.499H373.109L373.099 208.444H365.351ZM376.101 208.444L376.111 211.499H382.365L382.829 208.444H376.101ZM385.853 208.444L385.39 211.499H389.279L389.782 208.444H385.853ZM388.785 214.493H384.933L384.419 217.849H388.232L388.785 214.493ZM387.745 220.811H383.969L383.511 223.812H385.744C385.807 223.812 385.87 223.815 385.933 223.822H387.248L387.745 220.811ZM380.487 223.812L380.944 220.811H376.141L376.154 223.812H380.487ZM373.152 223.812L373.143 220.811H368.558L369.336 223.812H373.152ZM366.269 223.822L365.49 220.811H362.025L363.009 223.822H366.269ZM361.054 217.849H364.722L363.85 214.493H359.955L361.054 217.849ZM367.789 217.849H373.133L373.119 214.493H366.918L367.789 217.849ZM376.121 214.493L376.131 217.849H381.398L381.908 214.493H376.121Z" fill="#FFFFFE"/>
<path fill-rule="evenodd" clip-rule="evenodd" d="M365.217 231.564C367.059 231.564 368.55 233.058 368.55 234.9C368.55 236.738 367.059 238.232 365.217 238.232C363.375 238.232 361.885 236.738 361.885 234.9C361.885 233.058 363.375 231.564 365.217 231.564Z" fill="#FFFFFE"/>
<path fill-rule="evenodd" clip-rule="evenodd" d="M384.719 231.564C386.561 231.564 388.052 233.058 388.052 234.9C388.052 236.738 386.561 238.232 384.719 238.232C382.877 238.232 381.387 236.738 381.387 234.9C381.387 233.058 382.877 231.564 384.719 231.564Z" fill="#FFFFFE"/>
<path fill-rule="evenodd" clip-rule="evenodd" d="M169.793 274.606C169.412 276.521 167.775 281.053 168.318 283.229C173.649 287.152 181.864 284.65 188.96 284.905C193.253 285.061 196.808 283.925 197.649 282.288C198.567 280.503 191.047 279.264 185.912 277.936C180.168 276.448 177.163 273.957 177.163 273.957L169.793 274.606Z" fill="#606060"/>
<path fill-rule="evenodd" clip-rule="evenodd" d="M179.357 278.257C179.357 278.257 179.413 278.105 179.526 277.853C179.715 277.402 180.089 276.64 180.55 275.988C180.305 275.868 180.069 275.752 179.854 275.64C179.639 275.948 179.45 276.269 179.284 276.574C178.857 277.356 178.612 278.022 178.608 278.032C178.539 278.217 178.652 278.419 178.857 278.482C179.066 278.545 179.288 278.446 179.357 278.257Z" fill="#FFFFFE"/>
<path fill-rule="evenodd" clip-rule="evenodd" d="M183.272 279.585C183.272 279.585 183.329 279.433 183.438 279.178C183.61 278.767 183.941 278.095 184.346 277.485C184.084 277.402 183.832 277.319 183.587 277.237C183.445 277.459 183.315 277.684 183.199 277.899C182.772 278.684 182.524 279.347 182.52 279.357C182.454 279.546 182.563 279.748 182.772 279.811C182.977 279.874 183.203 279.771 183.272 279.585Z" fill="#FFFFFE"/>
<path fill-rule="evenodd" clip-rule="evenodd" d="M187.188 280.91C187.188 280.91 187.241 280.755 187.354 280.503C187.549 280.033 187.953 279.221 188.437 278.552L187.632 278.36C187.436 278.648 187.264 278.943 187.112 279.224C186.684 280.006 186.439 280.672 186.436 280.682C186.366 280.871 186.476 281.073 186.684 281.136C186.893 281.199 187.115 281.096 187.188 280.91Z" fill="#FFFFFE"/>
<path fill-rule="evenodd" clip-rule="evenodd" d="M170.293 266.98L170.445 274.606C170.445 274.606 171.393 274.881 171.794 275.309C172.194 275.733 172.761 277.164 173.42 277.177C176.047 277.233 177.531 273.957 177.531 273.957L177.518 267.004L170.293 266.98Z" fill="#EEA4A3"/>
<path fill-rule="evenodd" clip-rule="evenodd" d="M181.918 158.551C173.378 158.551 165.811 158.755 165.811 158.755C163.082 159.949 158.394 166.159 157.013 170.099C155.631 174.048 156.194 180.627 156.913 184.02C160.925 202.909 165.54 213.9 167.097 221.391C168.051 225.969 166.093 226.197 166.093 237.805C166.093 248.194 169.846 268.471 169.846 268.471C169.846 268.471 173.98 269.72 178.207 268.448C178.207 268.448 180.695 232.813 181.398 228.632C182.537 221.858 182.935 219.015 183.061 207.285C183.24 190.791 181.918 158.551 181.918 158.551Z" fill="black"/>
<path fill-rule="evenodd" clip-rule="evenodd" d="M148.164 274.119C147.491 275.955 145.182 280.182 145.381 282.414C147.309 284.352 151.897 285.101 155.452 284.79C159.01 284.481 161.223 286.413 165.523 287.241C169.74 288.053 173.427 287.476 174.51 285.989C175.693 284.366 168.451 281.984 163.581 279.883C158.132 277.531 155.545 274.61 155.545 274.61L148.164 274.119Z" fill="#606060"/>
<path fill-rule="evenodd" clip-rule="evenodd" d="M157.055 279.198C157.055 279.198 157.132 279.055 157.281 278.823C157.536 278.403 158.026 277.707 158.579 277.134C158.354 276.981 158.142 276.829 157.943 276.683C157.685 276.955 157.45 277.243 157.238 277.518C156.698 278.23 156.353 278.85 156.346 278.857C156.25 279.032 156.33 279.247 156.522 279.343C156.721 279.436 156.956 279.37 157.055 279.198Z" fill="#FFFFFE"/>
<path fill-rule="evenodd" clip-rule="evenodd" d="M160.716 281.109C160.716 281.109 160.799 280.967 160.945 280.731C161.18 280.351 161.607 279.738 162.101 279.198C161.856 279.078 161.62 278.956 161.389 278.837C161.216 279.032 161.054 279.234 160.905 279.43C160.362 280.139 160.017 280.758 160.01 280.768C159.914 280.944 159.994 281.162 160.189 281.255C160.381 281.348 160.62 281.281 160.716 281.109Z" fill="#FFFFFE"/>
<path fill-rule="evenodd" clip-rule="evenodd" d="M164.383 283.021C164.383 283.017 164.463 282.875 164.609 282.643C164.877 282.206 165.397 281.467 165.98 280.881L165.215 280.569C164.98 280.821 164.761 281.086 164.566 281.341C164.026 282.05 163.681 282.669 163.675 282.679C163.578 282.852 163.658 283.07 163.853 283.163C164.049 283.259 164.284 283.193 164.383 283.021Z" fill="#FFFFFE"/>
<path fill-rule="evenodd" clip-rule="evenodd" d="M149.827 266.659L148.807 274.219C148.807 274.219 149.701 274.636 150.032 275.12C150.364 275.603 150.702 277.101 151.354 277.217C153.938 277.674 155.909 274.666 155.909 274.666L156.963 267.792L149.827 266.659Z" fill="#EEA4A3"/>
<path fill-rule="evenodd" clip-rule="evenodd" d="M157.758 270.323C157.758 270.323 167.339 242.016 168.833 239.452C170.324 236.887 175.69 191.486 175.531 188.2C175.531 188.2 181.723 178.492 180.547 171.767L152.203 164.357C151.981 168.683 151.12 169.017 152.647 179.875C153.425 185.411 152.243 205.708 157.02 232.488C151.689 248.131 149.364 250.446 148.877 268.047C150.374 269.021 155.29 270.846 157.758 270.323Z" fill="#353535"/>
<path fill-rule="evenodd" clip-rule="evenodd" d="M170.104 109.01L178.565 117.275L182.183 108.704L173.5 99.5151L170.104 109.01Z" fill="#F0B7B5"/>
<path fill-rule="evenodd" clip-rule="evenodd" d="M180.838 111.915C180.838 111.915 171.725 106.352 172.364 99.9663L181.964 108.192L180.838 111.915Z" fill="#DB686E"/>
<path fill-rule="evenodd" clip-rule="evenodd" d="M172.391 99.9617C172.391 99.9617 172.725 101.324 173.136 102.371C173.547 103.415 180.994 108.022 183.061 108.639C185.128 109.255 188.004 109.302 188.643 102.163C189.282 95.0227 188.53 88.6182 184.366 84.628C180.202 80.6359 173.01 82.9952 169.393 87.0264C165.772 91.057 167.306 100.434 172.391 99.9617Z" fill="#F0B7B5"/>
<path fill-rule="evenodd" clip-rule="evenodd" d="M184.903 126.946C185.661 130.453 193.569 140.869 183.733 145.068C184.042 152.956 187.619 180.253 187.619 180.253C187.619 180.253 176.591 183.861 166.448 183.049C156.755 182.27 147.906 178.089 147.906 178.089C147.906 178.089 152.422 137.012 155.605 124.344C157.059 120.31 157.523 116.586 159.097 114.359C162.621 109.376 167.713 109.01 167.713 109.01L172.04 110.761L178.566 117.275L179.993 113.894C186.993 118.518 185.95 124.536 184.903 126.946Z" fill="#E1842D"/>
<path fill-rule="evenodd" clip-rule="evenodd" d="M179.568 124.803C177.362 124.736 175.775 120.866 173.553 117.571C171.326 114.277 170.796 111.125 166.907 111.201L166.914 109.385C167.421 109.11 167.712 109.01 167.712 109.01L172.039 110.761L178.565 117.276L179.436 115.212C179.708 115.726 181.937 124.877 179.568 124.803Z" fill="#F0B7B5"/>
<path fill-rule="evenodd" clip-rule="evenodd" d="M184.704 157.11L160.912 126.941C161.601 131.705 171.957 157.865 171.957 157.865C173.239 161.584 173.282 161.082 175.173 164.073C175.77 165.013 184.442 168.03 186.149 168.562C186.052 165.797 184.833 160.772 184.704 157.11Z" fill="#C56E2E"/>
<path fill-rule="evenodd" clip-rule="evenodd" d="M161.72 127.966C158.778 118.716 170.399 115.033 173.45 122.308C176.448 129.452 183.17 151.238 183.17 151.238C183.17 151.238 198.786 143.957 206.296 139.913C208.237 138.867 209.476 136.786 209.934 136.742C212.925 135.316 219.388 132.42 218.484 133.703C218.272 134.004 215.098 136.131 214.485 137.632C213.79 139.34 217.477 141.75 209.357 145.267C205.856 146.693 180.622 165.093 177.873 162.704C175.123 160.318 162.383 131.689 161.72 127.966Z" fill="#F0B7B5"/>
<path fill-rule="evenodd" clip-rule="evenodd" d="M178.714 92.4391C178.714 92.4391 186.294 92.6952 189.123 90.2454C195.378 84.8212 191.104 72.8963 175.952 77.3947C169.727 79.2435 166.199 84.9749 163.105 89.7701C159.232 95.7658 154.445 96.1368 152.189 96.8527C138.72 101.123 134.384 115.346 146.127 123.153C146.157 123.173 147.253 118.596 150.473 118.186C144.361 125.795 153.028 133.764 154.737 133.167C155.734 123.479 159.434 105.34 172.381 114.36C179.238 112.732 172.225 101.218 172.728 98.0479C172.695 96.7046 173.567 96.7387 173.722 96.7569C173.878 96.7765 175.243 97.7229 175.243 97.7229C175.405 95.9606 176.362 92.8333 178.714 92.4391Z" fill="#353535"/>
<path fill-rule="evenodd" clip-rule="evenodd" d="M238.127 214.308H252.034L256.377 239.789C253.939 238.955 252.064 240.114 249.752 240.369C249.178 240.432 246.253 239.501 244.527 239.554C242.189 239.624 240.864 240.598 239.475 240.445C237.104 240.18 234.775 239.196 233.42 239.269C229.537 239.488 230.316 240.535 227.185 240.28C225.171 240.114 223.236 238.772 221.166 238.928L226.261 214.308H238.127Z" fill="#E05769"/>
<path fill-rule="evenodd" clip-rule="evenodd" d="M226.262 214.308H252.035V211.909H226.262V214.308Z" fill="#E57D77"/>
<path fill-rule="evenodd" clip-rule="evenodd" d="M268.201 267.431C271.421 267.431 274.031 270.041 274.031 273.261C274.031 276.485 271.421 279.095 268.201 279.095C264.981 279.095 262.367 276.485 262.367 273.261C262.367 270.041 264.981 267.431 268.201 267.431Z" fill="#FFFFFE"/>
<path fill-rule="evenodd" clip-rule="evenodd" d="M102.118 190.678L104.175 179.922C104.685 177.271 104.079 174.673 102.694 172.599C101.306 170.526 99.1428 168.993 96.5191 168.479C93.8987 167.968 91.3247 168.577 89.2741 169.978C87.2236 171.381 85.7063 173.565 85.1962 176.216L83.139 186.971C83.0628 187.369 82.6851 187.627 82.2909 187.551C81.8967 187.475 81.6383 187.09 81.7145 186.693L83.7717 175.938C84.9378 169.847 90.7682 165.864 96.7974 167.041C102.823 168.218 106.765 174.109 105.599 180.2L103.542 190.956C103.466 191.354 103.085 191.612 102.694 191.536C102.3 191.46 102.041 191.076 102.118 190.678Z" fill="#933030"/>
<path fill-rule="evenodd" clip-rule="evenodd" d="M80.4056 181.058L123.627 189.499L117.028 251.51L73.8066 243.069L80.4056 181.058Z" fill="#D95A57"/>
<path fill-rule="evenodd" clip-rule="evenodd" d="M72.8259 179.577L80.4055 181.058L73.8065 243.069L56.0801 239.607L72.8259 179.577Z" fill="#C14848"/>
<path fill-rule="evenodd" clip-rule="evenodd" d="M73.8065 243.069L66.4787 233.313L56.0801 239.607L73.8065 243.069Z" fill="#933030"/>
<path fill-rule="evenodd" clip-rule="evenodd" d="M112.874 193.627C113.063 192.639 112.423 191.685 111.446 191.493C110.469 191.301 109.525 191.947 109.336 192.934C109.144 193.925 109.783 194.879 110.76 195.071C111.741 195.26 112.685 194.614 112.874 193.627Z" fill="#933030"/>
<path fill-rule="evenodd" clip-rule="evenodd" d="M110.548 192.325L112.605 181.568C113.112 178.918 112.509 176.319 111.125 174.245C109.737 172.173 107.573 170.639 104.953 170.126C102.329 169.615 99.7554 170.224 97.7048 171.624C95.6509 173.027 94.1337 175.211 93.6268 177.862L91.5696 188.618C91.4934 189.015 91.1125 189.274 90.7183 189.197C90.3274 189.121 90.069 188.737 90.1452 188.339L92.2024 177.585C93.3685 171.493 99.1989 167.51 105.228 168.687C111.254 169.864 115.196 175.756 114.03 181.846L111.973 192.603C111.897 193 111.516 193.259 111.121 193.183C110.73 193.106 110.472 192.722 110.548 192.325Z" fill="#933030"/>
<path fill-rule="evenodd" clip-rule="evenodd" d="M135.265 191.752L36.2073 197.622H36.2053L36.1688 196.982L36.6346 197.416C36.5342 197.532 36.3679 197.615 36.2053 197.622L36.1688 196.982L36.6346 197.416L36.1712 196.986H36.8012C36.8002 197.155 36.738 197.304 36.6346 197.416L36.1712 196.986H36.8012H36.1748L36.7648 196.77L36.8012 196.986H36.1748L36.7648 196.77L36.7628 196.767L51.6529 238.395L120.729 250.509L137.378 176.907L138.68 177.207L137.375 176.929C137.806 174.859 139.446 173.266 141.506 172.908L141.735 174.237L141.446 172.92L152.733 170.4C153.455 170.24 154.167 170.699 154.323 171.426C154.485 172.153 154.028 172.874 153.309 173.034L142.023 175.554L141.96 175.566C140.976 175.737 140.194 176.497 139.986 177.486L139.982 177.508L123.048 252.355C122.889 253.054 122.216 253.507 121.517 253.385L50.4331 240.919C49.9594 240.836 49.5692 240.505 49.4055 240.048L34.2531 197.685L34.2524 197.681C34.1713 197.456 34.1312 197.218 34.1318 196.986C34.1318 196.452 34.3329 195.962 34.6712 195.591C35.0064 195.217 35.505 194.962 36.0519 194.928L36.0502 194.932L135.109 189.058C135.845 189.015 136.477 189.582 136.52 190.324C136.563 191.069 136 191.705 135.265 191.752Z" fill="#353535"/>
<path fill-rule="evenodd" clip-rule="evenodd" d="M46.3232 195.518L59.277 240.903C59.3432 241.141 59.2074 241.389 58.9722 241.459C58.737 241.529 58.4885 241.389 58.4223 241.151L45.4688 195.767C45.4006 195.528 45.5361 195.28 45.7729 195.21C46.0088 195.144 46.2556 195.28 46.3232 195.518Z" fill="#242553"/>
<path fill-rule="evenodd" clip-rule="evenodd" d="M57.081 194.859L67.3968 242.353C67.4498 242.595 67.2974 242.834 67.0589 242.887C66.8204 242.94 66.5819 242.787 66.5289 242.546L56.2097 195.051C56.16 194.809 56.3091 194.567 56.5509 194.514C56.7895 194.461 57.028 194.614 57.081 194.859Z" fill="#242553"/>
<path fill-rule="evenodd" clip-rule="evenodd" d="M67.8764 194.193L75.4427 243.791C75.4792 244.036 75.3135 244.265 75.0717 244.301C74.8266 244.341 74.6013 244.172 74.5615 243.927L66.9953 194.329C66.9588 194.084 67.1245 193.855 67.3696 193.815C67.6114 193.779 67.84 193.948 67.8764 194.193Z" fill="#242553"/>
<path fill-rule="evenodd" clip-rule="evenodd" d="M78.7126 193.524L83.4133 245.216C83.4332 245.461 83.2543 245.679 83.0092 245.703C82.7673 245.726 82.5487 245.544 82.5255 245.295L77.8247 193.607C77.8049 193.358 77.9838 193.14 78.2289 193.116C78.474 193.093 78.6894 193.275 78.7126 193.524Z" fill="#242553"/>
<path fill-rule="evenodd" clip-rule="evenodd" d="M89.5882 192.851L91.3075 246.627C91.3174 246.875 91.1253 247.081 90.8768 247.091C90.6317 247.097 90.4263 246.905 90.4197 246.657L88.7004 192.881C88.6937 192.633 88.8859 192.424 89.131 192.417C89.3762 192.407 89.5815 192.603 89.5882 192.851Z" fill="#242553"/>
<path fill-rule="evenodd" clip-rule="evenodd" d="M100.507 192.176L99.1321 248.025C99.1288 248.27 98.9234 248.469 98.6783 248.462C98.4331 248.456 98.2377 248.25 98.2443 248.002L99.6191 192.152C99.6224 191.904 99.8278 191.708 100.073 191.715C100.318 191.722 100.514 191.927 100.507 192.176Z" fill="#242553"/>
<path fill-rule="evenodd" clip-rule="evenodd" d="M111.466 191.496L106.887 249.406C106.867 249.655 106.652 249.84 106.407 249.82C106.162 249.801 105.98 249.585 106 249.337L110.578 191.424C110.598 191.175 110.813 190.993 111.058 191.013C111.303 191.033 111.485 191.248 111.466 191.496Z" fill="#242553"/>
<path fill-rule="evenodd" clip-rule="evenodd" d="M126.227 190.841L114.566 250.808C114.517 251.049 114.285 251.208 114.043 251.162C113.801 251.112 113.645 250.877 113.692 250.632L125.353 190.665C125.402 190.423 125.634 190.264 125.876 190.31C126.118 190.36 126.277 190.595 126.227 190.841Z" fill="#242553"/>
<path fill-rule="evenodd" clip-rule="evenodd" d="M130.437 209.478L40.7386 212.261C40.4928 212.271 40.2884 212.075 40.2805 211.827C40.2732 211.578 40.4663 211.37 40.7118 211.363L130.411 208.58C130.656 208.574 130.861 208.766 130.871 209.014C130.878 209.263 130.686 209.471 130.437 209.478Z" fill="#242553"/>
<path fill-rule="evenodd" clip-rule="evenodd" d="M125.638 233.734L45.8632 227.804C45.6183 227.787 45.4345 227.569 45.4524 227.324C45.4709 227.075 45.6836 226.89 45.9287 226.91L125.704 232.839C125.949 232.856 126.135 233.071 126.115 233.32C126.099 233.568 125.883 233.754 125.638 233.734Z" fill="#242553"/>
<path fill-rule="evenodd" clip-rule="evenodd" d="M122.58 251.745L130.497 274.557L129.662 274.868L130.461 274.474C130.656 274.878 130.749 275.309 130.749 275.726C130.749 276.488 130.448 277.2 129.944 277.727C129.444 278.257 128.715 278.601 127.903 278.598H61.9933C61.503 278.598 61.1055 278.197 61.1055 277.7C61.1055 277.203 61.503 276.803 61.9933 276.803H127.903C128.221 276.799 128.47 276.677 128.665 276.478C128.857 276.279 128.97 276.004 128.97 275.726C128.97 275.574 128.937 275.418 128.861 275.259L128.828 275.179L120.91 252.368C120.741 251.901 120.976 251.384 121.437 251.212C121.897 251.039 122.411 251.278 122.58 251.745Z" fill="#353535"/>
<path fill-rule="evenodd" clip-rule="evenodd" d="M122.61 257.847L55.2651 244.742C55.1061 244.712 54.9636 244.639 54.8411 244.53L50.0704 240.263C49.703 239.935 49.6679 239.365 49.9942 238.994C50.3199 238.623 50.8817 238.587 51.2504 238.918L55.8382 243.023L122.948 256.081C123.428 256.174 123.746 256.645 123.653 257.132C123.56 257.619 123.093 257.94 122.61 257.847Z" fill="#353535"/>
<path fill-rule="evenodd" clip-rule="evenodd" d="M115.971 272.036C112.98 272.036 110.555 274.461 110.555 277.452C110.555 280.443 112.98 282.868 115.971 282.868C118.962 282.868 121.387 280.443 121.387 277.452C121.387 274.461 118.962 272.036 115.971 272.036Z" fill="#FFFFFE"/>
<path fill-rule="evenodd" clip-rule="evenodd" d="M115.971 270.28C113.997 270.28 112.204 271.085 110.909 272.38H110.899C109.604 273.679 108.799 275.474 108.799 277.452C108.799 279.43 109.604 281.218 110.899 282.517L110.909 282.524C112.204 283.822 113.997 284.624 115.971 284.624C117.952 284.624 119.744 283.822 121.043 282.524V282.517C122.341 281.218 123.143 279.43 123.143 277.452C123.143 275.477 122.341 273.685 121.043 272.387V272.38C119.744 271.085 117.952 270.28 115.971 270.28ZM113.38 274.861C114.04 274.199 114.957 273.791 115.971 273.791C116.985 273.791 117.899 274.202 118.561 274.865L118.565 274.861C119.224 275.524 119.635 276.438 119.635 277.452C119.635 278.466 119.224 279.383 118.565 280.046L118.561 280.042C117.899 280.705 116.985 281.116 115.971 281.116C114.957 281.116 114.04 280.705 113.38 280.046C112.718 279.383 112.31 278.466 112.31 277.452C112.31 276.441 112.721 275.527 113.384 274.865L113.38 274.861Z" fill="#242553"/>
<path fill-rule="evenodd" clip-rule="evenodd" d="M71.4876 272.036C68.4962 272.036 66.0713 274.461 66.0713 277.452C66.0713 280.443 68.4962 282.868 71.4876 282.868C74.479 282.868 76.9039 280.443 76.9039 277.452C76.9039 274.461 74.479 272.036 71.4876 272.036Z" fill="#FFFFFE"/>
<path fill-rule="evenodd" clip-rule="evenodd" d="M71.4875 270.28C69.5131 270.28 67.7209 271.085 66.4223 272.38H66.4157C65.1171 273.679 64.3154 275.474 64.3154 277.452C64.3154 279.43 65.1171 281.218 66.4157 282.517L66.4223 282.524C67.7209 283.822 69.5131 284.624 71.4875 284.624C73.4685 284.624 75.2607 283.822 76.5593 282.524V282.517C77.8546 281.218 78.6596 279.43 78.6596 277.452C78.6596 275.477 77.8546 273.685 76.5593 272.387V272.38C75.2607 271.085 73.4685 270.28 71.4875 270.28ZM68.8936 274.861C69.5562 274.199 70.4738 273.791 71.4875 273.791C72.4979 273.791 73.4155 274.202 74.0747 274.865L74.0781 274.861C74.7406 275.524 75.1481 276.438 75.1481 277.452C75.1481 278.466 74.7406 279.383 74.0781 280.046L74.0747 280.042C73.4155 280.705 72.4979 281.116 71.4875 281.116C70.4738 281.116 69.5562 280.705 68.8936 280.046C68.2344 279.383 67.8269 278.466 67.8269 277.452C67.8269 276.441 68.2344 275.527 68.8969 274.865L68.8936 274.861Z" fill="#242553"/>
<path fill-rule="evenodd" clip-rule="evenodd" d="M419.961 221.854L420.041 209.786C420.061 206.811 421.27 204.131 423.211 202.187C425.156 200.245 427.823 199.049 430.768 199.056C433.713 199.066 436.366 200.275 438.281 202.23C440.199 204.184 441.372 206.871 441.352 209.846L441.272 221.914C441.269 222.358 441.623 222.722 442.067 222.722C442.508 222.726 442.869 222.364 442.872 221.917L442.952 209.849C442.995 203.015 437.545 197.463 430.777 197.443C424.01 197.423 418.487 202.949 418.441 209.783L418.361 221.851C418.358 222.295 418.716 222.659 419.156 222.659C419.597 222.659 419.958 222.302 419.961 221.854Z" fill="#3973AC"/>
<mask id="mask1" mask-type="alpha" maskUnits="userSpaceOnUse" x="390" y="215" width="56" height="70">
<path fill-rule="evenodd" clip-rule="evenodd" d="M445.492 216.107L439.34 284.558L390.809 284.422L396.96 215.974" fill="white"/>
</mask>
<g mask="url(#mask1)">
<path fill-rule="evenodd" clip-rule="evenodd" d="M445.492 216.107L396.96 215.974L390.809 284.422L439.34 284.558L445.492 216.107Z" fill="#A8A7A7"/>
</g>
<path fill-rule="evenodd" clip-rule="evenodd" d="M454.005 216.13L445.492 216.107L439.34 284.558L459.246 284.611L454.005 216.13Z" fill="#777777"/>
<path fill-rule="evenodd" clip-rule="evenodd" d="M439.34 284.558L449.354 275.58L459.246 284.611L439.34 284.558Z" fill="#A8A7A7"/>
<path fill-rule="evenodd" clip-rule="evenodd" d="M407.699 222.739C407.709 221.629 408.604 220.735 409.7 220.738C410.8 220.741 411.681 221.642 411.675 222.749C411.668 223.859 410.773 224.753 409.674 224.753C408.577 224.75 407.693 223.849 407.699 222.739Z" fill="#3973AC"/>
<path fill-rule="evenodd" clip-rule="evenodd" d="M430.611 222.802C430.618 221.692 431.512 220.798 432.612 220.801C433.709 220.804 434.593 221.705 434.587 222.812C434.58 223.921 433.682 224.816 432.586 224.816C431.486 224.813 430.601 223.912 430.611 222.802Z" fill="#3973AC"/>
<path fill-rule="evenodd" clip-rule="evenodd" d="M410.497 221.828L410.573 209.763C410.596 206.788 411.805 204.108 413.746 202.16C415.691 200.219 418.354 199.023 421.299 199.03C424.248 199.04 426.895 200.249 428.816 202.203C430.731 204.158 431.903 206.844 431.887 209.819L431.807 221.887C431.804 222.335 432.159 222.696 432.599 222.696C433.043 222.699 433.401 222.338 433.404 221.894L433.484 209.826C433.53 202.988 428.081 197.436 421.309 197.416C414.541 197.396 409.022 202.922 408.976 209.756L408.897 221.824C408.893 222.272 409.248 222.633 409.692 222.633C410.132 222.636 410.493 222.275 410.497 221.828Z" fill="#3973AC"/>
<path fill-rule="evenodd" clip-rule="evenodd" d="M411.904 244.573H414.15L413.716 242.903H412.878C412.338 242.903 411.901 242.466 411.901 241.926C411.901 241.386 412.338 240.949 412.878 240.949H431.078L429.283 251.835C429.147 252.666 428.428 253.276 427.586 253.276H415.707C414.687 253.372 414.531 253.819 413.809 254.544C413.216 255.134 413.163 255.608 412.981 256.413H425.943C426.48 256.413 426.914 257.377 426.914 257.913C426.914 258.447 426.993 257.993 426.457 257.993H411.182L410.672 257.913C410.672 256.052 411.48 254.061 412.841 252.875C412.6 252.673 412.414 252.404 412.311 252.093L408.24 239.673C408.161 239.428 407.932 239.263 407.677 239.263H406.229C405.693 239.263 405.252 238.825 405.252 238.285C405.252 237.745 405.693 237.308 406.229 237.308H407.677C408.777 237.308 409.754 238.017 410.098 239.064L411.904 244.573ZM415.396 242.903L415.83 244.573H419.646L419.639 242.903H415.396ZM421.282 242.903L421.289 244.573H424.714L424.969 242.903H421.282ZM426.626 242.903L426.371 244.573H428.501L428.776 242.903H426.626ZM428.229 246.216H426.119L425.841 248.051H427.928L428.229 246.216ZM427.659 249.675H425.592L425.34 251.318H426.563C426.599 251.318 426.632 251.318 426.665 251.324H427.388L427.659 249.675ZM423.684 251.318L423.936 249.675H421.305L421.312 251.318H423.684ZM419.669 251.318L419.662 249.675H417.151L417.579 251.318H419.669ZM415.899 251.324L415.472 249.675H413.574L414.114 251.324H415.899ZM413.043 248.051H415.051L414.574 246.216H412.441L413.043 248.051ZM416.731 248.051H419.659L419.652 246.216H416.254L416.731 248.051ZM421.296 246.216L421.302 248.051H424.184L424.462 246.216H421.296Z" fill="#FFFFFE"/>
<path fill-rule="evenodd" clip-rule="evenodd" d="M415.323 255.565C416.334 255.565 417.149 256.38 417.149 257.387C417.149 258.397 416.334 259.212 415.323 259.212C414.316 259.212 413.498 258.397 413.498 257.387C413.498 256.38 414.316 255.565 415.323 255.565Z" fill="#FFFFFE"/>
<path fill-rule="evenodd" clip-rule="evenodd" d="M426.003 255.565C427.013 255.565 427.828 256.38 427.828 257.387C427.828 258.397 427.013 259.212 426.003 259.212C424.996 259.212 424.178 258.397 424.178 257.387C424.178 256.38 424.996 255.565 426.003 255.565Z" fill="#FFFFFE"/>
<path fill-rule="evenodd" clip-rule="evenodd" d="M260.28 133.273C264.633 133.273 268.161 136.801 268.161 141.152C268.161 145.503 264.633 149.031 260.28 149.031C255.93 149.031 252.402 145.503 252.402 141.152C252.402 136.801 255.93 133.273 260.28 133.273Z" fill="#E1842D"/>
<path fill-rule="evenodd" clip-rule="evenodd" d="M260.28 136.178L261.93 139.406L265.511 139.977L262.95 142.544L263.513 146.125L260.28 144.483L257.05 146.125L257.613 142.544L255.053 139.977L258.63 139.406L260.28 136.178Z" fill="#FFFFFE"/>
<path fill-rule="evenodd" clip-rule="evenodd" d="M110.737 148.831C108.209 148.831 105.933 149.537 104.3 150.68C102.756 151.761 101.799 153.229 101.799 154.828C101.799 156.427 102.756 157.895 104.3 158.976C105.933 160.119 108.209 160.826 110.737 160.826C113.264 160.826 115.537 160.119 117.17 158.976C118.714 157.895 119.671 156.427 119.671 154.828C119.671 153.229 118.714 151.761 117.17 150.68C115.537 149.537 113.264 148.831 110.737 148.831ZM103.333 149.294C105.241 147.959 107.858 147.133 110.737 147.133C113.612 147.133 116.229 147.959 118.141 149.294C120.135 150.69 121.371 152.646 121.371 154.828C121.371 157.011 120.135 158.966 118.141 160.362C116.229 161.698 113.612 162.525 110.737 162.525C107.858 162.525 105.241 161.698 103.333 160.362C101.335 158.966 100.1 157.011 100.1 154.828C100.1 152.646 101.335 150.69 103.333 149.294Z" fill="#FFFFFE"/>
<path fill-rule="evenodd" clip-rule="evenodd" d="M125.634 148.831C123.103 148.831 120.831 149.537 119.198 150.68C117.651 151.761 116.697 153.229 116.697 154.828C116.697 156.427 117.651 157.895 119.198 158.976C120.831 160.119 123.103 160.826 125.634 160.826C128.162 160.826 130.434 160.119 132.068 158.976C133.615 157.895 134.569 156.427 134.569 154.828C134.569 153.229 133.615 151.761 132.068 150.68C130.434 149.537 128.162 148.831 125.634 148.831ZM118.23 149.294C120.138 147.959 122.755 147.133 125.634 147.133C128.51 147.133 131.127 147.959 133.035 149.294C135.032 150.69 136.268 152.646 136.268 154.828C136.268 157.011 135.032 158.966 133.035 160.362C131.127 161.698 128.51 162.525 125.634 162.525C122.755 162.525 120.138 161.698 118.23 160.362C116.233 158.966 114.997 157.011 114.997 154.828C114.997 152.646 116.233 150.69 118.23 149.294Z" fill="#FFFFFE"/>
<defs>
<linearGradient id="paint0_linear" x1="409.738" y1="257.711" x2="409.738" y2="158.983" gradientUnits="userSpaceOnUse">
<stop stop-color="#E4732B"/>
<stop offset="1" stop-color="#F7C77D"/>
</linearGradient>
</defs>
</svg>
